<svg width="446" height="267" viewBox="0 0 446 267" fill="none" xmlns="http://www.w3.org/2000/svg">
<path d="M56.1812 219.909V262.039H20.3615L-9.95291 293.034V325.969H-49.9504V285.946H-16.0561L14.0775 255.132V219.909H56.1812ZM-8.89632 227.504L19.9305 197.052H56.1812V154.922H14.0775V189.665L-14.5546 219.909H-51V262.039H-8.89632V227.504ZM79.162 284.896V320.043L50.4673 349.883H14.0845V392.013H56.1882V357.395L85.3834 327.026H121.266V284.896H79.162ZM-8.89632 357.311L20.3823 327.026H56.1812V284.896H14.0775V320.133L-14.6937 349.883H-51V392.013H-8.89632V357.311ZM143.732 89.9347V125.158L113.598 155.972H79.7042V195.995H119.702V163.06L150.016 132.065H185.836V89.9347H143.732ZM120.758 97.5303L149.585 67.0783H185.836V24.9478H143.732V59.6914L115.1 89.9347H78.6476V132.065H120.751V97.5303H120.758ZM208.81 154.922V190.069L180.115 219.909H143.732V262.039H185.836V227.421L215.031 197.052H250.913V154.922H208.81ZM120.758 227.337L150.037 197.052H185.836V154.922H143.732V190.159L114.961 219.909H78.6476V262.039H120.751V227.337H120.758ZM143.732 -170.013V-134.789L113.598 -103.976H79.7042V-63.9528H119.702V-96.888L150.016 -127.882H185.836V-170.013H143.732ZM120.758 -162.417L149.585 -192.869H185.836V-235H143.732V-200.256L115.1 -170.013H78.6476V-127.882H120.751V-162.417H120.758ZM208.81 -105.026V-69.879L180.115 -40.0392H143.732V2.09138H185.836V-32.527L215.031 -62.8956H250.913V-105.026H208.81ZM120.758 -32.6105L150.037 -62.8956H185.836V-105.026H143.732V-69.7886L114.961 -40.0392H78.6476V2.09138H120.751V-32.6105H120.758ZM208.81 284.896V320.119L178.676 350.933H144.782V390.956H184.779V358.021L215.094 327.026H250.913V284.896H208.81ZM185.836 292.491L214.663 262.039H250.913V219.909H208.81V254.652L180.178 284.896H143.725V327.026H185.829V292.491H185.836ZM273.894 349.883V385.03L245.199 414.869H208.817V457H250.92V422.382L280.116 392.013H315.998V349.883H273.894ZM185.836 422.298L215.114 392.013H250.913V349.883H208.81V385.12L180.038 414.869H143.725V457H185.829V422.298H185.836ZM338.819 154.922V190.145L308.685 220.959H274.791V260.982H314.788V228.047L345.103 197.052H380.922V154.922H338.819ZM315.838 162.517L344.665 132.065H380.916V89.9347H338.812V124.678L310.18 154.922H273.727V197.052H315.831V162.517H315.838ZM403.896 219.909V255.056L375.202 284.896H338.819V327.026H380.922V292.408L410.118 262.039H446V219.909H403.896ZM315.838 292.324L345.117 262.039H380.916V219.909H338.812V255.146L310.041 284.896H273.727V327.026H315.831V292.324H315.838ZM273.894 -40.0392V-4.8156L243.761 25.9981H209.866V66.0211H249.864V33.0859L280.178 2.09138H315.998V-40.0392H273.894ZM250.913 -32.4436L279.74 -62.8956H315.991V-105.026H273.887V-70.2825L245.255 -40.0392H208.803V2.09138H250.906V-32.4436H250.913ZM338.972 24.9478V60.0948L310.277 89.9347H273.894V132.065H315.998V97.4469L345.193 67.0783H381.075V24.9478H338.972ZM250.913 97.3634L280.192 67.0783H315.991V24.9478H273.887V60.1853L245.116 89.9347H208.803V132.065H250.906V97.3634H250.913ZM14.0775 -40.0392V-4.8156L-16.0561 25.9981H-49.9504V66.0211H-9.95291V33.0859L20.3615 2.09138H56.1812V-40.0392H14.0775ZM-8.89632 -32.4436L19.9305 -62.8956H56.1812V-105.026H14.0775V-70.2825L-14.5546 -40.0392H-51V2.09138H-8.89632V-32.4436ZM79.162 24.9478V60.0948L50.4673 89.9347H14.0845V132.065H56.1882V97.4469L85.3834 67.0783H121.266V24.9478H79.162ZM-8.89632 97.3634L20.3823 67.0783H56.1812V24.9478H14.0775V60.1853L-14.6937 89.9347H-51V132.065H-8.89632V97.3634Z" fill="url(#paint0_linear_5038_826)" fill-opacity="0.35"/>
<defs>
<linearGradient id="paint0_linear_5038_826" x1="-280.5" y1="62" x2="500.51" y2="168.424" gradientUnits="userSpaceOnUse">
<stop offset="0.41" stop-color="#172224"/>
<stop offset="0.49" stop-color="#296E6B" stop-opacity="0.3"/>
<stop offset="0.6" stop-color="#225555"/>
<stop offset="0.7" stop-color="#266666" stop-opacity="0.4"/>
<stop offset="0.78" stop-color="#286D6C" stop-opacity="0.3"/>
</linearGradient>
</defs>
</svg>
